<svg width="20" height="20" viewBox="0 0 20 20" fill="none" xmlns="http://www.w3.org/2000/svg">
<path d="M19.5344 18.4655L15.475 14.4155C16.9077 12.7098 17.6266 10.5169 17.4817 8.29403C17.3369 6.07118 16.3394 3.99008 14.6975 2.48476C13.0555 0.979436 10.8958 0.16612 8.66878 0.214438C6.44175 0.262757 4.31934 1.16898 2.74422 2.7441C1.1691 4.31922 0.262879 6.44163 0.21456 8.66866C0.166242 10.8957 0.979558 13.0554 2.48488 14.6974C3.9902 16.3393 6.07131 17.3367 8.29415 17.4816C10.517 17.6265 12.7099 16.9076 14.4156 15.4749L18.4656 19.5343C18.609 19.6729 18.8006 19.7504 19 19.7504C19.1994 19.7504 19.391 19.6729 19.5344 19.5343C19.6752 19.3921 19.7542 19.2 19.7542 18.9999C19.7542 18.7998 19.6752 18.6077 19.5344 18.4655ZM1.75002 8.8749C1.75002 7.46571 2.1679 6.08816 2.9508 4.91646C3.73371 3.74476 4.84648 2.83153 6.1484 2.29226C7.45033 1.75299 8.88293 1.61189 10.265 1.88681C11.6472 2.16173 12.9167 2.84032 13.9132 3.83677C14.9096 4.83321 15.5882 6.10277 15.8631 7.48488C16.138 8.867 15.9969 10.2996 15.4577 11.6015C14.9184 12.9034 14.0052 14.0162 12.8335 14.7991C11.6618 15.582 10.2842 15.9999 8.87502 15.9999C6.98612 15.9974 5.17529 15.246 3.83963 13.9103C2.50397 12.5746 1.7525 10.7638 1.75002 8.8749Z" fill="#1E1E1E"/>
</svg>
